%TF.GenerationSoftware,KiCad,Pcbnew,(6.0.1)*%
%TF.CreationDate,2022-03-11T00:25:21+11:00*%
%TF.ProjectId,WiFiTracingTag,57694669-5472-4616-9369-6e675461672e,rev?*%
%TF.SameCoordinates,PX66ff300PY791ddc0*%
%TF.FileFunction,Soldermask,Top*%
%TF.FilePolarity,Negative*%
%FSLAX46Y46*%
G04 Gerber Fmt 4.6, Leading zero omitted, Abs format (unit mm)*
G04 Created by KiCad (PCBNEW (6.0.1)) date 2022-03-11 00:25:21*
%MOMM*%
%LPD*%
G01*
G04 APERTURE LIST*
G04 Aperture macros list*
%AMRoundRect*
0 Rectangle with rounded corners*
0 $1 Rounding radius*
0 $2 $3 $4 $5 $6 $7 $8 $9 X,Y pos of 4 corners*
0 Add a 4 corners polygon primitive as box body*
4,1,4,$2,$3,$4,$5,$6,$7,$8,$9,$2,$3,0*
0 Add four circle primitives for the rounded corners*
1,1,$1+$1,$2,$3*
1,1,$1+$1,$4,$5*
1,1,$1+$1,$6,$7*
1,1,$1+$1,$8,$9*
0 Add four rect primitives between the rounded corners*
20,1,$1+$1,$2,$3,$4,$5,0*
20,1,$1+$1,$4,$5,$6,$7,0*
20,1,$1+$1,$6,$7,$8,$9,0*
20,1,$1+$1,$8,$9,$2,$3,0*%
G04 Aperture macros list end*
%ADD10C,0.010000*%
%ADD11R,0.800000X0.400000*%
%ADD12R,0.400000X0.800000*%
%ADD13R,1.450000X1.450000*%
%ADD14R,0.700000X0.700000*%
%ADD15RoundRect,0.200000X-0.200000X-0.275000X0.200000X-0.275000X0.200000X0.275000X-0.200000X0.275000X0*%
%ADD16RoundRect,0.225000X0.250000X-0.225000X0.250000X0.225000X-0.250000X0.225000X-0.250000X-0.225000X0*%
%ADD17RoundRect,0.225000X0.225000X0.250000X-0.225000X0.250000X-0.225000X-0.250000X0.225000X-0.250000X0*%
%ADD18C,1.500000*%
%ADD19C,0.800000*%
%ADD20R,1.750000X0.400000*%
%ADD21O,1.900000X1.250000*%
%ADD22O,1.400000X1.250000*%
%ADD23RoundRect,0.175000X-0.675000X0.175000X-0.675000X-0.175000X0.675000X-0.175000X0.675000X0.175000X0*%
%ADD24RoundRect,0.150000X-0.512500X-0.150000X0.512500X-0.150000X0.512500X0.150000X-0.512500X0.150000X0*%
%ADD25RoundRect,0.150000X-0.587500X-0.150000X0.587500X-0.150000X0.587500X0.150000X-0.587500X0.150000X0*%
%ADD26RoundRect,0.200000X0.200000X0.275000X-0.200000X0.275000X-0.200000X-0.275000X0.200000X-0.275000X0*%
%ADD27RoundRect,0.225000X-0.225000X-0.250000X0.225000X-0.250000X0.225000X0.250000X-0.225000X0.250000X0*%
%ADD28C,0.900000*%
%ADD29R,1.200000X1.500000*%
%ADD30R,1.250000X1.700000*%
%ADD31R,1.250000X1.500000*%
%ADD32R,1.250000X1.525000*%
%ADD33R,1.225000X1.725000*%
%ADD34R,1.700000X1.700000*%
%ADD35O,1.700000X1.700000*%
%ADD36RoundRect,0.100000X-0.712500X-0.100000X0.712500X-0.100000X0.712500X0.100000X-0.712500X0.100000X0*%
%ADD37RoundRect,0.225000X-0.250000X0.225000X-0.250000X-0.225000X0.250000X-0.225000X0.250000X0.225000X0*%
%ADD38C,2.200000*%
%ADD39RoundRect,0.218750X0.256250X-0.218750X0.256250X0.218750X-0.256250X0.218750X-0.256250X-0.218750X0*%
%ADD40RoundRect,0.200000X0.275000X-0.200000X0.275000X0.200000X-0.275000X0.200000X-0.275000X-0.200000X0*%
%ADD41RoundRect,0.175000X-0.825000X-0.175000X0.825000X-0.175000X0.825000X0.175000X-0.825000X0.175000X0*%
%ADD42RoundRect,0.200000X-0.275000X0.200000X-0.275000X-0.200000X0.275000X-0.200000X0.275000X0.200000X0*%
%ADD43RoundRect,0.250000X-0.250000X-1.500000X0.250000X-1.500000X0.250000X1.500000X-0.250000X1.500000X0*%
%ADD44RoundRect,0.250001X-0.499999X-1.449999X0.499999X-1.449999X0.499999X1.449999X-0.499999X1.449999X0*%
%ADD45RoundRect,0.075000X-0.225000X0.075000X-0.225000X-0.075000X0.225000X-0.075000X0.225000X0.075000X0*%
%ADD46RoundRect,0.050000X-0.250000X0.050000X-0.250000X-0.050000X0.250000X-0.050000X0.250000X0.050000X0*%
%ADD47R,1.500000X2.300000*%
G04 APERTURE END LIST*
D10*
%TO.C,U4*%
X11825000Y35450000D02*
X10175000Y35450000D01*
X10175000Y35450000D02*
X10175000Y36440000D01*
X10175000Y36440000D02*
X10835000Y37100000D01*
X10835000Y37100000D02*
X11825000Y37100000D01*
X11825000Y37100000D02*
X11825000Y35450000D01*
G36*
X11825000Y35450000D02*
G01*
X10175000Y35450000D01*
X10175000Y36440000D01*
X10835000Y37100000D01*
X11825000Y37100000D01*
X11825000Y35450000D01*
G37*
X11825000Y35450000D02*
X10175000Y35450000D01*
X10175000Y36440000D01*
X10835000Y37100000D01*
X11825000Y37100000D01*
X11825000Y35450000D01*
%TD*%
D11*
%TO.C,U4*%
X7075000Y38300000D03*
X7075000Y37500000D03*
X7075000Y36700000D03*
X7075000Y35900000D03*
X7075000Y35100000D03*
X7075000Y34300000D03*
X7075000Y33500000D03*
X7075000Y32700000D03*
X7075000Y31900000D03*
X7075000Y31100000D03*
X7075000Y30300000D03*
D12*
X8175000Y29400000D03*
X8975000Y29400000D03*
X9775000Y29400000D03*
X10575000Y29400000D03*
X11375000Y29400000D03*
X12175000Y29400000D03*
X12975000Y29400000D03*
X13775000Y29400000D03*
X14575000Y29400000D03*
X15375000Y29400000D03*
X16175000Y29400000D03*
X16975000Y29400000D03*
X17775000Y29400000D03*
D11*
X18875000Y30300000D03*
X18875000Y31100000D03*
X18875000Y31900000D03*
X18875000Y32700000D03*
X18875000Y33500000D03*
X18875000Y34300000D03*
X18875000Y35100000D03*
X18875000Y35900000D03*
X18875000Y36700000D03*
X18875000Y37500000D03*
X18875000Y38300000D03*
D12*
X17775000Y39200000D03*
X16975000Y39200000D03*
X16175000Y39200000D03*
X15375000Y39200000D03*
X14575000Y39200000D03*
X13775000Y39200000D03*
X12975000Y39200000D03*
X12175000Y39200000D03*
X11375000Y39200000D03*
X10575000Y39200000D03*
X9775000Y39200000D03*
X8975000Y39200000D03*
X8175000Y39200000D03*
D13*
X12975000Y36275000D03*
X14950000Y36275000D03*
X14950000Y34300000D03*
X14950000Y32325000D03*
X12975000Y32325000D03*
X11000000Y32325000D03*
X11000000Y34300000D03*
X12975000Y34300000D03*
D14*
X18925000Y39250000D03*
X18925000Y29350000D03*
X7025000Y29350000D03*
X7025000Y39250000D03*
%TD*%
D15*
%TO.C,R2*%
X10775000Y19800000D03*
X12425000Y19800000D03*
%TD*%
D16*
%TO.C,C3*%
X11000000Y7525000D03*
X11000000Y9075000D03*
%TD*%
D17*
%TO.C,C6*%
X4475000Y32600000D03*
X2925000Y32600000D03*
%TD*%
D18*
%TO.C,TP1*%
X5900000Y20000000D03*
%TD*%
D19*
%TO.C,J2*%
X21517500Y13175000D03*
X21517500Y9275000D03*
D20*
X20542500Y9925000D03*
X20542500Y10575000D03*
X20542500Y11225000D03*
X20542500Y11875000D03*
X20542500Y12525000D03*
D21*
X23417500Y14825000D03*
D22*
X20617500Y14525000D03*
X20617500Y7925000D03*
D21*
X23417500Y7625000D03*
%TD*%
D16*
%TO.C,C1*%
X17000000Y7325000D03*
X17000000Y8875000D03*
%TD*%
D23*
%TO.C,L1*%
X3500000Y12275000D03*
X3500000Y13725000D03*
%TD*%
D24*
%TO.C,U2*%
X12862500Y9250000D03*
X12862500Y8300000D03*
X12862500Y7350000D03*
X15137500Y7350000D03*
X15137500Y9250000D03*
%TD*%
D25*
%TO.C,D2*%
X14622500Y18050000D03*
X14622500Y16150000D03*
X16497500Y17100000D03*
%TD*%
D26*
%TO.C,R6*%
X12425000Y18300000D03*
X10775000Y18300000D03*
%TD*%
D27*
%TO.C,C5*%
X7125000Y24800000D03*
X8675000Y24800000D03*
%TD*%
D28*
%TO.C,SW1*%
X19000000Y2600000D03*
X12200000Y2600000D03*
D29*
X13100000Y4300000D03*
D30*
X15600000Y4300000D03*
D31*
X18100000Y4300000D03*
D32*
X13100000Y1287500D03*
D33*
X15587500Y1287500D03*
D32*
X18100000Y1287500D03*
%TD*%
D34*
%TO.C,J1*%
X24000000Y33125000D03*
D35*
X24000000Y30585000D03*
X24000000Y28045000D03*
%TD*%
D15*
%TO.C,R9*%
X3975000Y24800000D03*
X5625000Y24800000D03*
%TD*%
D36*
%TO.C,U1*%
X14587500Y21575000D03*
X14587500Y20925000D03*
X14587500Y20275000D03*
X14587500Y19625000D03*
X18812500Y19625000D03*
X18812500Y20275000D03*
X18812500Y20925000D03*
X18812500Y21575000D03*
%TD*%
D37*
%TO.C,C4*%
X1500000Y13775000D03*
X1500000Y12225000D03*
%TD*%
D26*
%TO.C,R11*%
X5625000Y23300000D03*
X3975000Y23300000D03*
%TD*%
D38*
%TO.C,REF\u002A\u002A*%
X23500000Y37500000D03*
%TD*%
D27*
%TO.C,C8*%
X7125000Y26400000D03*
X8675000Y26400000D03*
%TD*%
D15*
%TO.C,R5*%
X20775000Y21500000D03*
X22425000Y21500000D03*
%TD*%
D39*
%TO.C,D1*%
X12800000Y10912500D03*
X12800000Y12487500D03*
%TD*%
D40*
%TO.C,R4*%
X16000000Y10875000D03*
X16000000Y12525000D03*
%TD*%
D41*
%TO.C,BOOT1*%
X13450000Y26975000D03*
X18950000Y26975000D03*
X18950000Y24825000D03*
X13450000Y24825000D03*
%TD*%
D38*
%TO.C,REF\u002A\u002A*%
X23500000Y2500000D03*
%TD*%
D42*
%TO.C,R1*%
X14400000Y12525000D03*
X14400000Y10875000D03*
%TD*%
D15*
%TO.C,R7*%
X20775000Y18500000D03*
X22425000Y18500000D03*
%TD*%
D16*
%TO.C,C2*%
X9900000Y12225000D03*
X9900000Y13775000D03*
%TD*%
D15*
%TO.C,R10*%
X3975000Y26400000D03*
X5625000Y26400000D03*
%TD*%
D38*
%TO.C,REF\u002A\u002A*%
X2500000Y37500000D03*
%TD*%
D43*
%TO.C,BT1*%
X4100000Y8150000D03*
X6100000Y8150000D03*
D44*
X1750000Y2400000D03*
X8450000Y2400000D03*
%TD*%
D45*
%TO.C,U3*%
X5750000Y14050000D03*
D46*
X5750000Y13500000D03*
X5750000Y13000000D03*
X5750000Y12500000D03*
X5750000Y12000000D03*
X8250000Y12000000D03*
X8250000Y12500000D03*
X8250000Y13000000D03*
X8250000Y13500000D03*
X8250000Y14000000D03*
D47*
X7000000Y13000000D03*
%TD*%
D26*
%TO.C,R8*%
X22425000Y20000000D03*
X20775000Y20000000D03*
%TD*%
%TO.C,R3*%
X12425000Y21300000D03*
X10775000Y21300000D03*
%TD*%
D17*
%TO.C,C7*%
X4475000Y34100000D03*
X2925000Y34100000D03*
%TD*%
D18*
%TO.C,TP2*%
X5900000Y16300000D03*
%TD*%
M02*
