%TF.GenerationSoftware,KiCad,Pcbnew,(6.0.1)*%
%TF.CreationDate,2022-03-11T00:25:21+11:00*%
%TF.ProjectId,WiFiTracingTag,57694669-5472-4616-9369-6e675461672e,rev?*%
%TF.SameCoordinates,PX66ff300PY791ddc0*%
%TF.FileFunction,Legend,Top*%
%TF.FilePolarity,Positive*%
%FSLAX46Y46*%
G04 Gerber Fmt 4.6, Leading zero omitted, Abs format (unit mm)*
G04 Created by KiCad (PCBNEW (6.0.1)) date 2022-03-11 00:25:21*
%MOMM*%
%LPD*%
G01*
G04 APERTURE LIST*
G04 Aperture macros list*
%AMRoundRect*
0 Rectangle with rounded corners*
0 $1 Rounding radius*
0 $2 $3 $4 $5 $6 $7 $8 $9 X,Y pos of 4 corners*
0 Add a 4 corners polygon primitive as box body*
4,1,4,$2,$3,$4,$5,$6,$7,$8,$9,$2,$3,0*
0 Add four circle primitives for the rounded corners*
1,1,$1+$1,$2,$3*
1,1,$1+$1,$4,$5*
1,1,$1+$1,$6,$7*
1,1,$1+$1,$8,$9*
0 Add four rect primitives between the rounded corners*
20,1,$1+$1,$2,$3,$4,$5,0*
20,1,$1+$1,$4,$5,$6,$7,0*
20,1,$1+$1,$6,$7,$8,$9,0*
20,1,$1+$1,$8,$9,$2,$3,0*%
G04 Aperture macros list end*
%ADD10C,0.100000*%
%ADD11C,0.150000*%
%ADD12C,0.127000*%
%ADD13C,0.200000*%
%ADD14C,0.120000*%
%ADD15C,0.010000*%
%ADD16R,0.800000X0.400000*%
%ADD17R,0.400000X0.800000*%
%ADD18R,1.450000X1.450000*%
%ADD19R,0.700000X0.700000*%
%ADD20RoundRect,0.200000X-0.200000X-0.275000X0.200000X-0.275000X0.200000X0.275000X-0.200000X0.275000X0*%
%ADD21RoundRect,0.225000X0.250000X-0.225000X0.250000X0.225000X-0.250000X0.225000X-0.250000X-0.225000X0*%
%ADD22RoundRect,0.225000X0.225000X0.250000X-0.225000X0.250000X-0.225000X-0.250000X0.225000X-0.250000X0*%
%ADD23C,1.500000*%
%ADD24C,0.800000*%
%ADD25R,1.750000X0.400000*%
%ADD26O,1.900000X1.250000*%
%ADD27O,1.400000X1.250000*%
%ADD28RoundRect,0.175000X-0.675000X0.175000X-0.675000X-0.175000X0.675000X-0.175000X0.675000X0.175000X0*%
%ADD29RoundRect,0.150000X-0.512500X-0.150000X0.512500X-0.150000X0.512500X0.150000X-0.512500X0.150000X0*%
%ADD30RoundRect,0.150000X-0.587500X-0.150000X0.587500X-0.150000X0.587500X0.150000X-0.587500X0.150000X0*%
%ADD31RoundRect,0.200000X0.200000X0.275000X-0.200000X0.275000X-0.200000X-0.275000X0.200000X-0.275000X0*%
%ADD32RoundRect,0.225000X-0.225000X-0.250000X0.225000X-0.250000X0.225000X0.250000X-0.225000X0.250000X0*%
%ADD33C,0.900000*%
%ADD34R,1.200000X1.500000*%
%ADD35R,1.250000X1.700000*%
%ADD36R,1.250000X1.500000*%
%ADD37R,1.250000X1.525000*%
%ADD38R,1.225000X1.725000*%
%ADD39R,1.700000X1.700000*%
%ADD40O,1.700000X1.700000*%
%ADD41RoundRect,0.100000X-0.712500X-0.100000X0.712500X-0.100000X0.712500X0.100000X-0.712500X0.100000X0*%
%ADD42RoundRect,0.225000X-0.250000X0.225000X-0.250000X-0.225000X0.250000X-0.225000X0.250000X0.225000X0*%
%ADD43C,2.200000*%
%ADD44RoundRect,0.218750X0.256250X-0.218750X0.256250X0.218750X-0.256250X0.218750X-0.256250X-0.218750X0*%
%ADD45RoundRect,0.200000X0.275000X-0.200000X0.275000X0.200000X-0.275000X0.200000X-0.275000X-0.200000X0*%
%ADD46RoundRect,0.175000X-0.825000X-0.175000X0.825000X-0.175000X0.825000X0.175000X-0.825000X0.175000X0*%
%ADD47RoundRect,0.200000X-0.275000X0.200000X-0.275000X-0.200000X0.275000X-0.200000X0.275000X0.200000X0*%
%ADD48RoundRect,0.250000X-0.250000X-1.500000X0.250000X-1.500000X0.250000X1.500000X-0.250000X1.500000X0*%
%ADD49RoundRect,0.250001X-0.499999X-1.449999X0.499999X-1.449999X0.499999X1.449999X-0.499999X1.449999X0*%
%ADD50RoundRect,0.075000X-0.225000X0.075000X-0.225000X-0.075000X0.225000X-0.075000X0.225000X0.075000X0*%
%ADD51RoundRect,0.050000X-0.250000X0.050000X-0.250000X-0.050000X0.250000X-0.050000X0.250000X0.050000X0*%
%ADD52R,1.500000X2.300000*%
G04 APERTURE END LIST*
D10*
X21033333Y27547620D02*
X20700000Y28023810D01*
X20461904Y27547620D02*
X20461904Y28547620D01*
X20842857Y28547620D01*
X20938095Y28500000D01*
X20985714Y28452381D01*
X21033333Y28357143D01*
X21033333Y28214286D01*
X20985714Y28119048D01*
X20938095Y28071429D01*
X20842857Y28023810D01*
X20461904Y28023810D01*
X21366666Y28547620D02*
X22033333Y27547620D01*
X22033333Y28547620D02*
X21366666Y27547620D01*
X10533333Y6247620D02*
X10723809Y6247620D01*
X10819047Y6200000D01*
X10914285Y6104762D01*
X10961904Y5914286D01*
X10961904Y5580953D01*
X10914285Y5390477D01*
X10819047Y5295239D01*
X10723809Y5247620D01*
X10533333Y5247620D01*
X10438095Y5295239D01*
X10342857Y5390477D01*
X10295238Y5580953D01*
X10295238Y5914286D01*
X10342857Y6104762D01*
X10438095Y6200000D01*
X10533333Y6247620D01*
X11247619Y5914286D02*
X11628571Y5914286D01*
X11390476Y5247620D02*
X11390476Y6104762D01*
X11438095Y6200000D01*
X11533333Y6247620D01*
X11628571Y6247620D01*
X11819047Y5914286D02*
X12200000Y5914286D01*
X11961904Y5247620D02*
X11961904Y6104762D01*
X12009523Y6200000D01*
X12104761Y6247620D01*
X12200000Y6247620D01*
X20438095Y31147620D02*
X21009523Y31147620D01*
X20723809Y30147620D02*
X20723809Y31147620D01*
X21247619Y31147620D02*
X21914285Y30147620D01*
X21914285Y31147620D02*
X21247619Y30147620D01*
X19252380Y6247620D02*
X19442857Y6247620D01*
X19538095Y6200000D01*
X19633333Y6104762D01*
X19680952Y5914286D01*
X19680952Y5580953D01*
X19633333Y5390477D01*
X19538095Y5295239D01*
X19442857Y5247620D01*
X19252380Y5247620D01*
X19157142Y5295239D01*
X19061904Y5390477D01*
X19014285Y5580953D01*
X19014285Y5914286D01*
X19061904Y6104762D01*
X19157142Y6200000D01*
X19252380Y6247620D01*
X20109523Y5914286D02*
X20109523Y5247620D01*
X20109523Y5819048D02*
X20157142Y5866667D01*
X20252380Y5914286D01*
X20395238Y5914286D01*
X20490476Y5866667D01*
X20538095Y5771429D01*
X20538095Y5247620D01*
D11*
%TO.C,U4*%
X8538095Y47182620D02*
X8538095Y46373096D01*
X8585714Y46277858D01*
X8633333Y46230239D01*
X8728571Y46182620D01*
X8919047Y46182620D01*
X9014285Y46230239D01*
X9061904Y46277858D01*
X9109523Y46373096D01*
X9109523Y47182620D01*
X10014285Y46849286D02*
X10014285Y46182620D01*
X9776190Y47230239D02*
X9538095Y46515953D01*
X10157142Y46515953D01*
%TO.C,R2*%
X8573333Y19347620D02*
X8240000Y19823810D01*
X8001904Y19347620D02*
X8001904Y20347620D01*
X8382857Y20347620D01*
X8478095Y20300000D01*
X8525714Y20252381D01*
X8573333Y20157143D01*
X8573333Y20014286D01*
X8525714Y19919048D01*
X8478095Y19871429D01*
X8382857Y19823810D01*
X8001904Y19823810D01*
X8954285Y20252381D02*
X9001904Y20300000D01*
X9097142Y20347620D01*
X9335238Y20347620D01*
X9430476Y20300000D01*
X9478095Y20252381D01*
X9525714Y20157143D01*
X9525714Y20061905D01*
X9478095Y19919048D01*
X8906666Y19347620D01*
X9525714Y19347620D01*
%TO.C,C3*%
X11357142Y10533334D02*
X11404761Y10485715D01*
X11452380Y10342858D01*
X11452380Y10247620D01*
X11404761Y10104762D01*
X11309523Y10009524D01*
X11214285Y9961905D01*
X11023809Y9914286D01*
X10880952Y9914286D01*
X10690476Y9961905D01*
X10595238Y10009524D01*
X10500000Y10104762D01*
X10452380Y10247620D01*
X10452380Y10342858D01*
X10500000Y10485715D01*
X10547619Y10533334D01*
X10452380Y10866667D02*
X10452380Y11485715D01*
X10833333Y11152381D01*
X10833333Y11295239D01*
X10880952Y11390477D01*
X10928571Y11438096D01*
X11023809Y11485715D01*
X11261904Y11485715D01*
X11357142Y11438096D01*
X11404761Y11390477D01*
X11452380Y11295239D01*
X11452380Y11009524D01*
X11404761Y10914286D01*
X11357142Y10866667D01*
%TO.C,C6*%
X1033333Y32242858D02*
X985714Y32195239D01*
X842857Y32147620D01*
X747619Y32147620D01*
X604761Y32195239D01*
X509523Y32290477D01*
X461904Y32385715D01*
X414285Y32576191D01*
X414285Y32719048D01*
X461904Y32909524D01*
X509523Y33004762D01*
X604761Y33100000D01*
X747619Y33147620D01*
X842857Y33147620D01*
X985714Y33100000D01*
X1033333Y33052381D01*
X1890476Y33147620D02*
X1700000Y33147620D01*
X1604761Y33100000D01*
X1557142Y33052381D01*
X1461904Y32909524D01*
X1414285Y32719048D01*
X1414285Y32338096D01*
X1461904Y32242858D01*
X1509523Y32195239D01*
X1604761Y32147620D01*
X1795238Y32147620D01*
X1890476Y32195239D01*
X1938095Y32242858D01*
X1985714Y32338096D01*
X1985714Y32576191D01*
X1938095Y32671429D01*
X1890476Y32719048D01*
X1795238Y32766667D01*
X1604761Y32766667D01*
X1509523Y32719048D01*
X1461904Y32671429D01*
X1414285Y32576191D01*
%TO.C,TP1*%
X4638095Y22195620D02*
X5209523Y22195620D01*
X4923809Y21195620D02*
X4923809Y22195620D01*
X5542857Y21195620D02*
X5542857Y22195620D01*
X5923809Y22195620D01*
X6019047Y22148000D01*
X6066666Y22100381D01*
X6114285Y22005143D01*
X6114285Y21862286D01*
X6066666Y21767048D01*
X6019047Y21719429D01*
X5923809Y21671810D01*
X5542857Y21671810D01*
X7066666Y21195620D02*
X6495238Y21195620D01*
X6780952Y21195620D02*
X6780952Y22195620D01*
X6685714Y22052762D01*
X6590476Y21957524D01*
X6495238Y21909905D01*
%TO.C,J2*%
X23319880Y10891667D02*
X24034166Y10891667D01*
X24177023Y10844048D01*
X24272261Y10748810D01*
X24319880Y10605953D01*
X24319880Y10510715D01*
X23415119Y11320239D02*
X23367500Y11367858D01*
X23319880Y11463096D01*
X23319880Y11701191D01*
X23367500Y11796429D01*
X23415119Y11844048D01*
X23510357Y11891667D01*
X23605595Y11891667D01*
X23748452Y11844048D01*
X24319880Y11272620D01*
X24319880Y11891667D01*
%TO.C,C1*%
X18857142Y7933334D02*
X18904761Y7885715D01*
X18952380Y7742858D01*
X18952380Y7647620D01*
X18904761Y7504762D01*
X18809523Y7409524D01*
X18714285Y7361905D01*
X18523809Y7314286D01*
X18380952Y7314286D01*
X18190476Y7361905D01*
X18095238Y7409524D01*
X18000000Y7504762D01*
X17952380Y7647620D01*
X17952380Y7742858D01*
X18000000Y7885715D01*
X18047619Y7933334D01*
X18952380Y8885715D02*
X18952380Y8314286D01*
X18952380Y8600000D02*
X17952380Y8600000D01*
X18095238Y8504762D01*
X18190476Y8409524D01*
X18238095Y8314286D01*
%TO.C,L1*%
X3952380Y15533334D02*
X3952380Y15057143D01*
X2952380Y15057143D01*
X3952380Y16390477D02*
X3952380Y15819048D01*
X3952380Y16104762D02*
X2952380Y16104762D01*
X3095238Y16009524D01*
X3190476Y15914286D01*
X3238095Y15819048D01*
%TO.C,U2*%
X14638095Y6447620D02*
X14638095Y5638096D01*
X14685714Y5542858D01*
X14733333Y5495239D01*
X14828571Y5447620D01*
X15019047Y5447620D01*
X15114285Y5495239D01*
X15161904Y5542858D01*
X15209523Y5638096D01*
X15209523Y6447620D01*
X15638095Y6352381D02*
X15685714Y6400000D01*
X15780952Y6447620D01*
X16019047Y6447620D01*
X16114285Y6400000D01*
X16161904Y6352381D01*
X16209523Y6257143D01*
X16209523Y6161905D01*
X16161904Y6019048D01*
X15590476Y5447620D01*
X16209523Y5447620D01*
%TO.C,D2*%
X17821904Y16647620D02*
X17821904Y17647620D01*
X18060000Y17647620D01*
X18202857Y17600000D01*
X18298095Y17504762D01*
X18345714Y17409524D01*
X18393333Y17219048D01*
X18393333Y17076191D01*
X18345714Y16885715D01*
X18298095Y16790477D01*
X18202857Y16695239D01*
X18060000Y16647620D01*
X17821904Y16647620D01*
X18774285Y17552381D02*
X18821904Y17600000D01*
X18917142Y17647620D01*
X19155238Y17647620D01*
X19250476Y17600000D01*
X19298095Y17552381D01*
X19345714Y17457143D01*
X19345714Y17361905D01*
X19298095Y17219048D01*
X18726666Y16647620D01*
X19345714Y16647620D01*
%TO.C,R6*%
X8573333Y17847620D02*
X8240000Y18323810D01*
X8001904Y17847620D02*
X8001904Y18847620D01*
X8382857Y18847620D01*
X8478095Y18800000D01*
X8525714Y18752381D01*
X8573333Y18657143D01*
X8573333Y18514286D01*
X8525714Y18419048D01*
X8478095Y18371429D01*
X8382857Y18323810D01*
X8001904Y18323810D01*
X9430476Y18847620D02*
X9240000Y18847620D01*
X9144761Y18800000D01*
X9097142Y18752381D01*
X9001904Y18609524D01*
X8954285Y18419048D01*
X8954285Y18038096D01*
X9001904Y17942858D01*
X9049523Y17895239D01*
X9144761Y17847620D01*
X9335238Y17847620D01*
X9430476Y17895239D01*
X9478095Y17942858D01*
X9525714Y18038096D01*
X9525714Y18276191D01*
X9478095Y18371429D01*
X9430476Y18419048D01*
X9335238Y18466667D01*
X9144761Y18466667D01*
X9049523Y18419048D01*
X9001904Y18371429D01*
X8954285Y18276191D01*
%TO.C,C5*%
X10233333Y24442858D02*
X10185714Y24395239D01*
X10042857Y24347620D01*
X9947619Y24347620D01*
X9804761Y24395239D01*
X9709523Y24490477D01*
X9661904Y24585715D01*
X9614285Y24776191D01*
X9614285Y24919048D01*
X9661904Y25109524D01*
X9709523Y25204762D01*
X9804761Y25300000D01*
X9947619Y25347620D01*
X10042857Y25347620D01*
X10185714Y25300000D01*
X10233333Y25252381D01*
X11138095Y25347620D02*
X10661904Y25347620D01*
X10614285Y24871429D01*
X10661904Y24919048D01*
X10757142Y24966667D01*
X10995238Y24966667D01*
X11090476Y24919048D01*
X11138095Y24871429D01*
X11185714Y24776191D01*
X11185714Y24538096D01*
X11138095Y24442858D01*
X11090476Y24395239D01*
X10995238Y24347620D01*
X10757142Y24347620D01*
X10661904Y24395239D01*
X10614285Y24442858D01*
%TO.C,SW1*%
X10804761Y1266667D02*
X10852380Y1409524D01*
X10852380Y1647620D01*
X10804761Y1742858D01*
X10757142Y1790477D01*
X10661904Y1838096D01*
X10566666Y1838096D01*
X10471428Y1790477D01*
X10423809Y1742858D01*
X10376190Y1647620D01*
X10328571Y1457143D01*
X10280952Y1361905D01*
X10233333Y1314286D01*
X10138095Y1266667D01*
X10042857Y1266667D01*
X9947619Y1314286D01*
X9900000Y1361905D01*
X9852380Y1457143D01*
X9852380Y1695239D01*
X9900000Y1838096D01*
X9852380Y2171429D02*
X10852380Y2409524D01*
X10138095Y2600000D01*
X10852380Y2790477D01*
X9852380Y3028572D01*
X10852380Y3933334D02*
X10852380Y3361905D01*
X10852380Y3647620D02*
X9852380Y3647620D01*
X9995238Y3552381D01*
X10090476Y3457143D01*
X10138095Y3361905D01*
%TO.C,R9*%
X2133333Y24347620D02*
X1800000Y24823810D01*
X1561904Y24347620D02*
X1561904Y25347620D01*
X1942857Y25347620D01*
X2038095Y25300000D01*
X2085714Y25252381D01*
X2133333Y25157143D01*
X2133333Y25014286D01*
X2085714Y24919048D01*
X2038095Y24871429D01*
X1942857Y24823810D01*
X1561904Y24823810D01*
X2609523Y24347620D02*
X2800000Y24347620D01*
X2895238Y24395239D01*
X2942857Y24442858D01*
X3038095Y24585715D01*
X3085714Y24776191D01*
X3085714Y25157143D01*
X3038095Y25252381D01*
X2990476Y25300000D01*
X2895238Y25347620D01*
X2704761Y25347620D01*
X2609523Y25300000D01*
X2561904Y25252381D01*
X2514285Y25157143D01*
X2514285Y24919048D01*
X2561904Y24823810D01*
X2609523Y24776191D01*
X2704761Y24728572D01*
X2895238Y24728572D01*
X2990476Y24776191D01*
X3038095Y24823810D01*
X3085714Y24919048D01*
%TO.C,U1*%
X13638095Y23597620D02*
X13638095Y22788096D01*
X13685714Y22692858D01*
X13733333Y22645239D01*
X13828571Y22597620D01*
X14019047Y22597620D01*
X14114285Y22645239D01*
X14161904Y22692858D01*
X14209523Y22788096D01*
X14209523Y23597620D01*
X15209523Y22597620D02*
X14638095Y22597620D01*
X14923809Y22597620D02*
X14923809Y23597620D01*
X14828571Y23454762D01*
X14733333Y23359524D01*
X14638095Y23311905D01*
%TO.C,C4*%
X1857142Y15433334D02*
X1904761Y15385715D01*
X1952380Y15242858D01*
X1952380Y15147620D01*
X1904761Y15004762D01*
X1809523Y14909524D01*
X1714285Y14861905D01*
X1523809Y14814286D01*
X1380952Y14814286D01*
X1190476Y14861905D01*
X1095238Y14909524D01*
X1000000Y15004762D01*
X952380Y15147620D01*
X952380Y15242858D01*
X1000000Y15385715D01*
X1047619Y15433334D01*
X1285714Y16290477D02*
X1952380Y16290477D01*
X904761Y16052381D02*
X1619047Y15814286D01*
X1619047Y16433334D01*
%TO.C,R11*%
X1257142Y22747620D02*
X923809Y23223810D01*
X685714Y22747620D02*
X685714Y23747620D01*
X1066666Y23747620D01*
X1161904Y23700000D01*
X1209523Y23652381D01*
X1257142Y23557143D01*
X1257142Y23414286D01*
X1209523Y23319048D01*
X1161904Y23271429D01*
X1066666Y23223810D01*
X685714Y23223810D01*
X2209523Y22747620D02*
X1638095Y22747620D01*
X1923809Y22747620D02*
X1923809Y23747620D01*
X1828571Y23604762D01*
X1733333Y23509524D01*
X1638095Y23461905D01*
X3161904Y22747620D02*
X2590476Y22747620D01*
X2876190Y22747620D02*
X2876190Y23747620D01*
X2780952Y23604762D01*
X2685714Y23509524D01*
X2590476Y23461905D01*
%TO.C,C8*%
X10233333Y26042858D02*
X10185714Y25995239D01*
X10042857Y25947620D01*
X9947619Y25947620D01*
X9804761Y25995239D01*
X9709523Y26090477D01*
X9661904Y26185715D01*
X9614285Y26376191D01*
X9614285Y26519048D01*
X9661904Y26709524D01*
X9709523Y26804762D01*
X9804761Y26900000D01*
X9947619Y26947620D01*
X10042857Y26947620D01*
X10185714Y26900000D01*
X10233333Y26852381D01*
X10804761Y26519048D02*
X10709523Y26566667D01*
X10661904Y26614286D01*
X10614285Y26709524D01*
X10614285Y26757143D01*
X10661904Y26852381D01*
X10709523Y26900000D01*
X10804761Y26947620D01*
X10995238Y26947620D01*
X11090476Y26900000D01*
X11138095Y26852381D01*
X11185714Y26757143D01*
X11185714Y26709524D01*
X11138095Y26614286D01*
X11090476Y26566667D01*
X10995238Y26519048D01*
X10804761Y26519048D01*
X10709523Y26471429D01*
X10661904Y26423810D01*
X10614285Y26328572D01*
X10614285Y26138096D01*
X10661904Y26042858D01*
X10709523Y25995239D01*
X10804761Y25947620D01*
X10995238Y25947620D01*
X11090476Y25995239D01*
X11138095Y26042858D01*
X11185714Y26138096D01*
X11185714Y26328572D01*
X11138095Y26423810D01*
X11090476Y26471429D01*
X10995238Y26519048D01*
%TO.C,R5*%
X23933333Y21047620D02*
X23600000Y21523810D01*
X23361904Y21047620D02*
X23361904Y22047620D01*
X23742857Y22047620D01*
X23838095Y22000000D01*
X23885714Y21952381D01*
X23933333Y21857143D01*
X23933333Y21714286D01*
X23885714Y21619048D01*
X23838095Y21571429D01*
X23742857Y21523810D01*
X23361904Y21523810D01*
X24838095Y22047620D02*
X24361904Y22047620D01*
X24314285Y21571429D01*
X24361904Y21619048D01*
X24457142Y21666667D01*
X24695238Y21666667D01*
X24790476Y21619048D01*
X24838095Y21571429D01*
X24885714Y21476191D01*
X24885714Y21238096D01*
X24838095Y21142858D01*
X24790476Y21095239D01*
X24695238Y21047620D01*
X24457142Y21047620D01*
X24361904Y21095239D01*
X24314285Y21142858D01*
%TO.C,D1*%
X13152380Y13461905D02*
X12152380Y13461905D01*
X12152380Y13700000D01*
X12200000Y13842858D01*
X12295238Y13938096D01*
X12390476Y13985715D01*
X12580952Y14033334D01*
X12723809Y14033334D01*
X12914285Y13985715D01*
X13009523Y13938096D01*
X13104761Y13842858D01*
X13152380Y13700000D01*
X13152380Y13461905D01*
X13152380Y14985715D02*
X13152380Y14414286D01*
X13152380Y14700000D02*
X12152380Y14700000D01*
X12295238Y14604762D01*
X12390476Y14509524D01*
X12438095Y14414286D01*
%TO.C,R4*%
X16452380Y14033334D02*
X15976190Y13700000D01*
X16452380Y13461905D02*
X15452380Y13461905D01*
X15452380Y13842858D01*
X15500000Y13938096D01*
X15547619Y13985715D01*
X15642857Y14033334D01*
X15785714Y14033334D01*
X15880952Y13985715D01*
X15928571Y13938096D01*
X15976190Y13842858D01*
X15976190Y13461905D01*
X15785714Y14890477D02*
X16452380Y14890477D01*
X15404761Y14652381D02*
X16119047Y14414286D01*
X16119047Y15033334D01*
%TO.C,BOOT1*%
X17266666Y23471429D02*
X17409523Y23423810D01*
X17457142Y23376191D01*
X17504761Y23280953D01*
X17504761Y23138096D01*
X17457142Y23042858D01*
X17409523Y22995239D01*
X17314285Y22947620D01*
X16933333Y22947620D01*
X16933333Y23947620D01*
X17266666Y23947620D01*
X17361904Y23900000D01*
X17409523Y23852381D01*
X17457142Y23757143D01*
X17457142Y23661905D01*
X17409523Y23566667D01*
X17361904Y23519048D01*
X17266666Y23471429D01*
X16933333Y23471429D01*
X18123809Y23947620D02*
X18314285Y23947620D01*
X18409523Y23900000D01*
X18504761Y23804762D01*
X18552380Y23614286D01*
X18552380Y23280953D01*
X18504761Y23090477D01*
X18409523Y22995239D01*
X18314285Y22947620D01*
X18123809Y22947620D01*
X18028571Y22995239D01*
X17933333Y23090477D01*
X17885714Y23280953D01*
X17885714Y23614286D01*
X17933333Y23804762D01*
X18028571Y23900000D01*
X18123809Y23947620D01*
X19171428Y23947620D02*
X19361904Y23947620D01*
X19457142Y23900000D01*
X19552380Y23804762D01*
X19600000Y23614286D01*
X19600000Y23280953D01*
X19552380Y23090477D01*
X19457142Y22995239D01*
X19361904Y22947620D01*
X19171428Y22947620D01*
X19076190Y22995239D01*
X18980952Y23090477D01*
X18933333Y23280953D01*
X18933333Y23614286D01*
X18980952Y23804762D01*
X19076190Y23900000D01*
X19171428Y23947620D01*
X19885714Y23947620D02*
X20457142Y23947620D01*
X20171428Y22947620D02*
X20171428Y23947620D01*
X21314285Y22947620D02*
X20742857Y22947620D01*
X21028571Y22947620D02*
X21028571Y23947620D01*
X20933333Y23804762D01*
X20838095Y23709524D01*
X20742857Y23661905D01*
%TO.C,R1*%
X14852380Y14073334D02*
X14376190Y13740000D01*
X14852380Y13501905D02*
X13852380Y13501905D01*
X13852380Y13882858D01*
X13900000Y13978096D01*
X13947619Y14025715D01*
X14042857Y14073334D01*
X14185714Y14073334D01*
X14280952Y14025715D01*
X14328571Y13978096D01*
X14376190Y13882858D01*
X14376190Y13501905D01*
X14852380Y15025715D02*
X14852380Y14454286D01*
X14852380Y14740000D02*
X13852380Y14740000D01*
X13995238Y14644762D01*
X14090476Y14549524D01*
X14138095Y14454286D01*
%TO.C,R7*%
X23933333Y18047620D02*
X23600000Y18523810D01*
X23361904Y18047620D02*
X23361904Y19047620D01*
X23742857Y19047620D01*
X23838095Y19000000D01*
X23885714Y18952381D01*
X23933333Y18857143D01*
X23933333Y18714286D01*
X23885714Y18619048D01*
X23838095Y18571429D01*
X23742857Y18523810D01*
X23361904Y18523810D01*
X24266666Y19047620D02*
X24933333Y19047620D01*
X24504761Y18047620D01*
%TO.C,C2*%
X10257142Y15333334D02*
X10304761Y15285715D01*
X10352380Y15142858D01*
X10352380Y15047620D01*
X10304761Y14904762D01*
X10209523Y14809524D01*
X10114285Y14761905D01*
X9923809Y14714286D01*
X9780952Y14714286D01*
X9590476Y14761905D01*
X9495238Y14809524D01*
X9400000Y14904762D01*
X9352380Y15047620D01*
X9352380Y15142858D01*
X9400000Y15285715D01*
X9447619Y15333334D01*
X9447619Y15714286D02*
X9400000Y15761905D01*
X9352380Y15857143D01*
X9352380Y16095239D01*
X9400000Y16190477D01*
X9447619Y16238096D01*
X9542857Y16285715D01*
X9638095Y16285715D01*
X9780952Y16238096D01*
X10352380Y15666667D01*
X10352380Y16285715D01*
%TO.C,R10*%
X1157142Y25947620D02*
X823809Y26423810D01*
X585714Y25947620D02*
X585714Y26947620D01*
X966666Y26947620D01*
X1061904Y26900000D01*
X1109523Y26852381D01*
X1157142Y26757143D01*
X1157142Y26614286D01*
X1109523Y26519048D01*
X1061904Y26471429D01*
X966666Y26423810D01*
X585714Y26423810D01*
X2109523Y25947620D02*
X1538095Y25947620D01*
X1823809Y25947620D02*
X1823809Y26947620D01*
X1728571Y26804762D01*
X1633333Y26709524D01*
X1538095Y26661905D01*
X2728571Y26947620D02*
X2823809Y26947620D01*
X2919047Y26900000D01*
X2966666Y26852381D01*
X3014285Y26757143D01*
X3061904Y26566667D01*
X3061904Y26328572D01*
X3014285Y26138096D01*
X2966666Y26042858D01*
X2919047Y25995239D01*
X2823809Y25947620D01*
X2728571Y25947620D01*
X2633333Y25995239D01*
X2585714Y26042858D01*
X2538095Y26138096D01*
X2490476Y26328572D01*
X2490476Y26566667D01*
X2538095Y26757143D01*
X2585714Y26852381D01*
X2633333Y26900000D01*
X2728571Y26947620D01*
%TO.C,BT1*%
X7614285Y9671429D02*
X7757142Y9623810D01*
X7804761Y9576191D01*
X7852380Y9480953D01*
X7852380Y9338096D01*
X7804761Y9242858D01*
X7757142Y9195239D01*
X7661904Y9147620D01*
X7280952Y9147620D01*
X7280952Y10147620D01*
X7614285Y10147620D01*
X7709523Y10100000D01*
X7757142Y10052381D01*
X7804761Y9957143D01*
X7804761Y9861905D01*
X7757142Y9766667D01*
X7709523Y9719048D01*
X7614285Y9671429D01*
X7280952Y9671429D01*
X8138095Y10147620D02*
X8709523Y10147620D01*
X8423809Y9147620D02*
X8423809Y10147620D01*
X9566666Y9147620D02*
X8995238Y9147620D01*
X9280952Y9147620D02*
X9280952Y10147620D01*
X9185714Y10004762D01*
X9090476Y9909524D01*
X8995238Y9861905D01*
%TO.C,U3*%
X7238095Y15847620D02*
X7238095Y15038096D01*
X7285714Y14942858D01*
X7333333Y14895239D01*
X7428571Y14847620D01*
X7619047Y14847620D01*
X7714285Y14895239D01*
X7761904Y14942858D01*
X7809523Y15038096D01*
X7809523Y15847620D01*
X8190476Y15847620D02*
X8809523Y15847620D01*
X8476190Y15466667D01*
X8619047Y15466667D01*
X8714285Y15419048D01*
X8761904Y15371429D01*
X8809523Y15276191D01*
X8809523Y15038096D01*
X8761904Y14942858D01*
X8714285Y14895239D01*
X8619047Y14847620D01*
X8333333Y14847620D01*
X8238095Y14895239D01*
X8190476Y14942858D01*
%TO.C,R8*%
X23933333Y19547620D02*
X23600000Y20023810D01*
X23361904Y19547620D02*
X23361904Y20547620D01*
X23742857Y20547620D01*
X23838095Y20500000D01*
X23885714Y20452381D01*
X23933333Y20357143D01*
X23933333Y20214286D01*
X23885714Y20119048D01*
X23838095Y20071429D01*
X23742857Y20023810D01*
X23361904Y20023810D01*
X24504761Y20119048D02*
X24409523Y20166667D01*
X24361904Y20214286D01*
X24314285Y20309524D01*
X24314285Y20357143D01*
X24361904Y20452381D01*
X24409523Y20500000D01*
X24504761Y20547620D01*
X24695238Y20547620D01*
X24790476Y20500000D01*
X24838095Y20452381D01*
X24885714Y20357143D01*
X24885714Y20309524D01*
X24838095Y20214286D01*
X24790476Y20166667D01*
X24695238Y20119048D01*
X24504761Y20119048D01*
X24409523Y20071429D01*
X24361904Y20023810D01*
X24314285Y19928572D01*
X24314285Y19738096D01*
X24361904Y19642858D01*
X24409523Y19595239D01*
X24504761Y19547620D01*
X24695238Y19547620D01*
X24790476Y19595239D01*
X24838095Y19642858D01*
X24885714Y19738096D01*
X24885714Y19928572D01*
X24838095Y20023810D01*
X24790476Y20071429D01*
X24695238Y20119048D01*
%TO.C,R3*%
X8573333Y20847620D02*
X8240000Y21323810D01*
X8001904Y20847620D02*
X8001904Y21847620D01*
X8382857Y21847620D01*
X8478095Y21800000D01*
X8525714Y21752381D01*
X8573333Y21657143D01*
X8573333Y21514286D01*
X8525714Y21419048D01*
X8478095Y21371429D01*
X8382857Y21323810D01*
X8001904Y21323810D01*
X8906666Y21847620D02*
X9525714Y21847620D01*
X9192380Y21466667D01*
X9335238Y21466667D01*
X9430476Y21419048D01*
X9478095Y21371429D01*
X9525714Y21276191D01*
X9525714Y21038096D01*
X9478095Y20942858D01*
X9430476Y20895239D01*
X9335238Y20847620D01*
X9049523Y20847620D01*
X8954285Y20895239D01*
X8906666Y20942858D01*
%TO.C,C7*%
X1033333Y33742858D02*
X985714Y33695239D01*
X842857Y33647620D01*
X747619Y33647620D01*
X604761Y33695239D01*
X509523Y33790477D01*
X461904Y33885715D01*
X414285Y34076191D01*
X414285Y34219048D01*
X461904Y34409524D01*
X509523Y34504762D01*
X604761Y34600000D01*
X747619Y34647620D01*
X842857Y34647620D01*
X985714Y34600000D01*
X1033333Y34552381D01*
X1366666Y34647620D02*
X2033333Y34647620D01*
X1604761Y33647620D01*
%TO.C,TP2*%
X4638095Y18495620D02*
X5209523Y18495620D01*
X4923809Y17495620D02*
X4923809Y18495620D01*
X5542857Y17495620D02*
X5542857Y18495620D01*
X5923809Y18495620D01*
X6019047Y18448000D01*
X6066666Y18400381D01*
X6114285Y18305143D01*
X6114285Y18162286D01*
X6066666Y18067048D01*
X6019047Y18019429D01*
X5923809Y17971810D01*
X5542857Y17971810D01*
X6495238Y18400381D02*
X6542857Y18448000D01*
X6638095Y18495620D01*
X6876190Y18495620D01*
X6971428Y18448000D01*
X7019047Y18400381D01*
X7066666Y18305143D01*
X7066666Y18209905D01*
X7019047Y18067048D01*
X6447619Y17495620D01*
X7066666Y17495620D01*
D12*
%TO.C,U4*%
X6375000Y28700000D02*
X19575000Y28700000D01*
X6375000Y28700000D02*
X6375000Y39900000D01*
X19575000Y39900000D02*
X19575000Y28700000D01*
X6375000Y39900000D02*
X19575000Y39900000D01*
D13*
X5825000Y38300000D02*
G75*
G03*
X5825000Y38300000I-100000J0D01*
G01*
D14*
%TO.C,R2*%
X11362742Y19277500D02*
X11837258Y19277500D01*
X11362742Y20322500D02*
X11837258Y20322500D01*
%TO.C,C3*%
X11510000Y8159420D02*
X11510000Y8440580D01*
X10490000Y8159420D02*
X10490000Y8440580D01*
%TO.C,C6*%
X3840580Y33110000D02*
X3559420Y33110000D01*
X3840580Y32090000D02*
X3559420Y32090000D01*
%TO.C,TP1*%
X6850000Y20000000D02*
G75*
G03*
X6850000Y20000000I-950000J0D01*
G01*
%TO.C,J2*%
X19892500Y9525000D02*
X19442500Y9525000D01*
X19442500Y9975000D02*
X19442500Y9525000D01*
%TO.C,C1*%
X17510000Y7959420D02*
X17510000Y8240580D01*
X16490000Y7959420D02*
X16490000Y8240580D01*
%TO.C,L1*%
X2600000Y13300000D02*
X2600000Y12700000D01*
X4400000Y13300000D02*
X4400000Y12700000D01*
%TO.C,U2*%
X14000000Y6740000D02*
X13200000Y6740000D01*
X14000000Y9860000D02*
X12200000Y9860000D01*
X14000000Y6740000D02*
X14800000Y6740000D01*
X14000000Y9860000D02*
X14800000Y9860000D01*
%TO.C,D2*%
X15560000Y18660000D02*
X13885000Y18660000D01*
X15560000Y15540000D02*
X16210000Y15540000D01*
X15560000Y15540000D02*
X14910000Y15540000D01*
X15560000Y18660000D02*
X16210000Y18660000D01*
%TO.C,R6*%
X11837258Y17777500D02*
X11362742Y17777500D01*
X11837258Y18822500D02*
X11362742Y18822500D01*
%TO.C,C5*%
X7759420Y25310000D02*
X8040580Y25310000D01*
X7759420Y24290000D02*
X8040580Y24290000D01*
%TO.C,SW1*%
X17100000Y-1200000D02*
X17100000Y-1200000D01*
X17600000Y-1200000D02*
X17100000Y-1200000D01*
X13600000Y-1200000D02*
X14100000Y-1200000D01*
X16300000Y300000D02*
X14850000Y300000D01*
X14900000Y4500000D02*
X13800000Y4500000D01*
X17600000Y-1200000D02*
X17600000Y-700000D01*
X16000000Y-1200000D02*
X15200000Y-1200000D01*
X11000000Y700000D02*
X11000000Y700000D01*
X17600000Y-400000D02*
X17600000Y100000D01*
X17600000Y-700000D02*
X17600000Y-700000D01*
X15200000Y-1200000D02*
X15200000Y-1200000D01*
X13800000Y4500000D02*
X13800000Y4500000D01*
X20200000Y4500000D02*
X20200000Y700000D01*
X17400000Y4500000D02*
X16300000Y4500000D01*
X14850000Y700000D02*
X13850000Y700000D01*
X13600000Y-400000D02*
X13600000Y100000D01*
X14400000Y-1200000D02*
X14900000Y-1200000D01*
X14850000Y300000D02*
X14850000Y700000D01*
X17350000Y400000D02*
X17350000Y700000D01*
X11000000Y4500000D02*
X12400000Y4500000D01*
X12350000Y700000D02*
X11000000Y700000D01*
X13600000Y100000D02*
X13600000Y100000D01*
X17600000Y100000D02*
X17600000Y100000D01*
X16300000Y-1200000D02*
X16300000Y-1200000D01*
X17350000Y700000D02*
X16300000Y700000D01*
X14900000Y-1200000D02*
X14900000Y-1200000D01*
X16800000Y-1200000D02*
X16300000Y-1200000D01*
X13600000Y-700000D02*
X13600000Y-700000D01*
X13600000Y-1200000D02*
X13600000Y-700000D01*
X20200000Y700000D02*
X18850000Y700000D01*
X16300000Y700000D02*
X16300000Y300000D01*
X16300000Y4500000D02*
X16300000Y4500000D01*
X18800000Y4500000D02*
X20200000Y4500000D01*
X12350000Y400000D02*
X12350000Y700000D01*
X18850000Y400000D02*
X17350000Y400000D01*
X18850000Y700000D02*
X18850000Y400000D01*
X14100000Y-1200000D02*
X14100000Y-1200000D01*
X11000000Y700000D02*
X11000000Y4500000D01*
X13850000Y400000D02*
X12350000Y400000D01*
X13850000Y700000D02*
X13850000Y400000D01*
%TO.C,J1*%
X22670000Y34455000D02*
X24000000Y34455000D01*
X22670000Y33125000D02*
X22670000Y34455000D01*
X25330000Y31855000D02*
X25330000Y26715000D01*
X22670000Y31855000D02*
X25330000Y31855000D01*
X22670000Y31855000D02*
X22670000Y26715000D01*
X22670000Y26715000D02*
X25330000Y26715000D01*
%TO.C,R9*%
X4562742Y25322500D02*
X5037258Y25322500D01*
X4562742Y24277500D02*
X5037258Y24277500D01*
%TO.C,U1*%
X16700000Y18990000D02*
X15200000Y18990000D01*
X16700000Y22210000D02*
X18200000Y22210000D01*
X16700000Y18990000D02*
X18200000Y18990000D01*
X16700000Y22210000D02*
X13775000Y22210000D01*
%TO.C,C4*%
X990000Y13140580D02*
X990000Y12859420D01*
X2010000Y13140580D02*
X2010000Y12859420D01*
%TO.C,R11*%
X5037258Y23822500D02*
X4562742Y23822500D01*
X5037258Y22777500D02*
X4562742Y22777500D01*
%TO.C,C8*%
X7759420Y25890000D02*
X8040580Y25890000D01*
X7759420Y26910000D02*
X8040580Y26910000D01*
%TO.C,R5*%
X21362742Y22022500D02*
X21837258Y22022500D01*
X21362742Y20977500D02*
X21837258Y20977500D01*
%TO.C,D1*%
X12065000Y10215000D02*
X13535000Y10215000D01*
X12065000Y12500000D02*
X12065000Y10215000D01*
X13535000Y10215000D02*
X13535000Y12500000D01*
%TO.C,R4*%
X15477500Y11462742D02*
X15477500Y11937258D01*
X16522500Y11462742D02*
X16522500Y11937258D01*
%TO.C,R1*%
X13877500Y11937258D02*
X13877500Y11462742D01*
X14922500Y11937258D02*
X14922500Y11462742D01*
%TO.C,R7*%
X21362742Y17977500D02*
X21837258Y17977500D01*
X21362742Y19022500D02*
X21837258Y19022500D01*
%TO.C,C2*%
X9390000Y12859420D02*
X9390000Y13140580D01*
X10410000Y12859420D02*
X10410000Y13140580D01*
%TO.C,R10*%
X4562742Y26922500D02*
X5037258Y26922500D01*
X4562742Y25877500D02*
X5037258Y25877500D01*
%TO.C,BT1*%
X2060000Y7010000D02*
X3340000Y7010000D01*
X2760000Y790000D02*
X7440000Y790000D01*
X9160000Y4360000D02*
X9160000Y8610000D01*
X8140000Y8610000D02*
X8140000Y7010000D01*
X1040000Y4360000D02*
X1040000Y8610000D01*
X2060000Y8610000D02*
X2060000Y7010000D01*
X3340000Y7010000D02*
X3340000Y9900000D01*
X9160000Y8610000D02*
X8140000Y8610000D01*
X1040000Y8610000D02*
X2060000Y8610000D01*
X8140000Y7010000D02*
X6860000Y7010000D01*
%TO.C,U3*%
X5750000Y11550000D02*
X8250000Y11550000D01*
X7050000Y14450000D02*
X8250000Y14450000D01*
%TO.C,R8*%
X21837258Y19477500D02*
X21362742Y19477500D01*
X21837258Y20522500D02*
X21362742Y20522500D01*
%TO.C,R3*%
X11837258Y20777500D02*
X11362742Y20777500D01*
X11837258Y21822500D02*
X11362742Y21822500D01*
%TO.C,C7*%
X3840580Y33590000D02*
X3559420Y33590000D01*
X3840580Y34610000D02*
X3559420Y34610000D01*
%TO.C,TP2*%
X6850000Y16300000D02*
G75*
G03*
X6850000Y16300000I-950000J0D01*
G01*
%TD*%
%LPC*%
D15*
%TO.C,U4*%
X11825000Y35450000D02*
X10175000Y35450000D01*
X10175000Y35450000D02*
X10175000Y36440000D01*
X10175000Y36440000D02*
X10835000Y37100000D01*
X10835000Y37100000D02*
X11825000Y37100000D01*
X11825000Y37100000D02*
X11825000Y35450000D01*
G36*
X11825000Y35450000D02*
G01*
X10175000Y35450000D01*
X10175000Y36440000D01*
X10835000Y37100000D01*
X11825000Y37100000D01*
X11825000Y35450000D01*
G37*
X11825000Y35450000D02*
X10175000Y35450000D01*
X10175000Y36440000D01*
X10835000Y37100000D01*
X11825000Y37100000D01*
X11825000Y35450000D01*
%TD*%
D16*
%TO.C,U4*%
X7075000Y38300000D03*
X7075000Y37500000D03*
X7075000Y36700000D03*
X7075000Y35900000D03*
X7075000Y35100000D03*
X7075000Y34300000D03*
X7075000Y33500000D03*
X7075000Y32700000D03*
X7075000Y31900000D03*
X7075000Y31100000D03*
X7075000Y30300000D03*
D17*
X8175000Y29400000D03*
X8975000Y29400000D03*
X9775000Y29400000D03*
X10575000Y29400000D03*
X11375000Y29400000D03*
X12175000Y29400000D03*
X12975000Y29400000D03*
X13775000Y29400000D03*
X14575000Y29400000D03*
X15375000Y29400000D03*
X16175000Y29400000D03*
X16975000Y29400000D03*
X17775000Y29400000D03*
D16*
X18875000Y30300000D03*
X18875000Y31100000D03*
X18875000Y31900000D03*
X18875000Y32700000D03*
X18875000Y33500000D03*
X18875000Y34300000D03*
X18875000Y35100000D03*
X18875000Y35900000D03*
X18875000Y36700000D03*
X18875000Y37500000D03*
X18875000Y38300000D03*
D17*
X17775000Y39200000D03*
X16975000Y39200000D03*
X16175000Y39200000D03*
X15375000Y39200000D03*
X14575000Y39200000D03*
X13775000Y39200000D03*
X12975000Y39200000D03*
X12175000Y39200000D03*
X11375000Y39200000D03*
X10575000Y39200000D03*
X9775000Y39200000D03*
X8975000Y39200000D03*
X8175000Y39200000D03*
D18*
X12975000Y36275000D03*
X14950000Y36275000D03*
X14950000Y34300000D03*
X14950000Y32325000D03*
X12975000Y32325000D03*
X11000000Y32325000D03*
X11000000Y34300000D03*
X12975000Y34300000D03*
D19*
X18925000Y39250000D03*
X18925000Y29350000D03*
X7025000Y29350000D03*
X7025000Y39250000D03*
%TD*%
D20*
%TO.C,R2*%
X10775000Y19800000D03*
X12425000Y19800000D03*
%TD*%
D21*
%TO.C,C3*%
X11000000Y7525000D03*
X11000000Y9075000D03*
%TD*%
D22*
%TO.C,C6*%
X4475000Y32600000D03*
X2925000Y32600000D03*
%TD*%
D23*
%TO.C,TP1*%
X5900000Y20000000D03*
%TD*%
D24*
%TO.C,J2*%
X21517500Y13175000D03*
X21517500Y9275000D03*
D25*
X20542500Y9925000D03*
X20542500Y10575000D03*
X20542500Y11225000D03*
X20542500Y11875000D03*
X20542500Y12525000D03*
D26*
X23417500Y14825000D03*
D27*
X20617500Y14525000D03*
X20617500Y7925000D03*
D26*
X23417500Y7625000D03*
%TD*%
D21*
%TO.C,C1*%
X17000000Y7325000D03*
X17000000Y8875000D03*
%TD*%
D28*
%TO.C,L1*%
X3500000Y12275000D03*
X3500000Y13725000D03*
%TD*%
D29*
%TO.C,U2*%
X12862500Y9250000D03*
X12862500Y8300000D03*
X12862500Y7350000D03*
X15137500Y7350000D03*
X15137500Y9250000D03*
%TD*%
D30*
%TO.C,D2*%
X14622500Y18050000D03*
X14622500Y16150000D03*
X16497500Y17100000D03*
%TD*%
D31*
%TO.C,R6*%
X12425000Y18300000D03*
X10775000Y18300000D03*
%TD*%
D32*
%TO.C,C5*%
X7125000Y24800000D03*
X8675000Y24800000D03*
%TD*%
D33*
%TO.C,SW1*%
X19000000Y2600000D03*
X12200000Y2600000D03*
D34*
X13100000Y4300000D03*
D35*
X15600000Y4300000D03*
D36*
X18100000Y4300000D03*
D37*
X13100000Y1287500D03*
D38*
X15587500Y1287500D03*
D37*
X18100000Y1287500D03*
%TD*%
D39*
%TO.C,J1*%
X24000000Y33125000D03*
D40*
X24000000Y30585000D03*
X24000000Y28045000D03*
%TD*%
D20*
%TO.C,R9*%
X3975000Y24800000D03*
X5625000Y24800000D03*
%TD*%
D41*
%TO.C,U1*%
X14587500Y21575000D03*
X14587500Y20925000D03*
X14587500Y20275000D03*
X14587500Y19625000D03*
X18812500Y19625000D03*
X18812500Y20275000D03*
X18812500Y20925000D03*
X18812500Y21575000D03*
%TD*%
D42*
%TO.C,C4*%
X1500000Y13775000D03*
X1500000Y12225000D03*
%TD*%
D31*
%TO.C,R11*%
X5625000Y23300000D03*
X3975000Y23300000D03*
%TD*%
D43*
%TO.C,REF\u002A\u002A*%
X23500000Y37500000D03*
%TD*%
D32*
%TO.C,C8*%
X7125000Y26400000D03*
X8675000Y26400000D03*
%TD*%
D20*
%TO.C,R5*%
X20775000Y21500000D03*
X22425000Y21500000D03*
%TD*%
D44*
%TO.C,D1*%
X12800000Y10912500D03*
X12800000Y12487500D03*
%TD*%
D45*
%TO.C,R4*%
X16000000Y10875000D03*
X16000000Y12525000D03*
%TD*%
D46*
%TO.C,BOOT1*%
X13450000Y26975000D03*
X18950000Y26975000D03*
X18950000Y24825000D03*
X13450000Y24825000D03*
%TD*%
D43*
%TO.C,REF\u002A\u002A*%
X23500000Y2500000D03*
%TD*%
D47*
%TO.C,R1*%
X14400000Y12525000D03*
X14400000Y10875000D03*
%TD*%
D20*
%TO.C,R7*%
X20775000Y18500000D03*
X22425000Y18500000D03*
%TD*%
D21*
%TO.C,C2*%
X9900000Y12225000D03*
X9900000Y13775000D03*
%TD*%
D20*
%TO.C,R10*%
X3975000Y26400000D03*
X5625000Y26400000D03*
%TD*%
D43*
%TO.C,REF\u002A\u002A*%
X2500000Y37500000D03*
%TD*%
D48*
%TO.C,BT1*%
X4100000Y8150000D03*
X6100000Y8150000D03*
D49*
X1750000Y2400000D03*
X8450000Y2400000D03*
%TD*%
D50*
%TO.C,U3*%
X5750000Y14050000D03*
D51*
X5750000Y13500000D03*
X5750000Y13000000D03*
X5750000Y12500000D03*
X5750000Y12000000D03*
X8250000Y12000000D03*
X8250000Y12500000D03*
X8250000Y13000000D03*
X8250000Y13500000D03*
X8250000Y14000000D03*
D52*
X7000000Y13000000D03*
%TD*%
D31*
%TO.C,R8*%
X22425000Y20000000D03*
X20775000Y20000000D03*
%TD*%
%TO.C,R3*%
X12425000Y21300000D03*
X10775000Y21300000D03*
%TD*%
D22*
%TO.C,C7*%
X4475000Y34100000D03*
X2925000Y34100000D03*
%TD*%
D23*
%TO.C,TP2*%
X5900000Y16300000D03*
%TD*%
M02*
